999
Inkscape export via "Better DXF Output" (bob@bobcookdev.com)
  0
SECTION
  2
HEADER
  9
$ACADVER
  1
AC1014
  9
$HANDSEED
  5
FFFF
  0
ENDSEC
  0
SECTION
  2
TABLES
  0
TABLE
  2
VPORT
  5
8
330
0
100
AcDbSymbolTable
 70
     4
  0
VPORT
  5
2E
330
8
100
AcDbSymbolTableRecord
100
AcDbViewportTableRecord
  2
*ACTIVE
 70
     0
 10
0.0
 20
0.0
 11
1.0
 21
1.0
 12
4.25
 22
5.5
 13
0.0
 23
0.0
 14
10.0
 24
10.0
 15
10.0
 25
10.0
 16
0.0
 26
0.0
 36
1.0
 17
0.0
 27
0.0
 37
0.0
 40
11
 41
1.24
 42
50.0
 43
0.0
 44
0.0
 50
0.0
 51
0.0
 71
     0
 72
   100
 73
     1
 74
     3
 75
     0
 76
     0
 77
     0
 78
     0
  0
ENDTAB
  0
TABLE
  2
LTYPE
  5
5
330
0
100
AcDbSymbolTable
 70
     1
  0
LTYPE
  5
14
330
5
100
AcDbSymbolTableRecord
100
AcDbLinetypeTableRecord
  2
BYBLOCK
 70
     0
  3

 72
    65
 73
     0
 40
0.0
  0
LTYPE
  5
15
330
5
100
AcDbSymbolTableRecord
100
AcDbLinetypeTableRecord
  2
BYLAYER
 70
     0
  3

 72
    65
 73
     0
 40
0.0
  0
LTYPE
  5
16
330
5
100
AcDbSymbolTableRecord
100
AcDbLinetypeTableRecord
  2
CONTINUOUS
 70
     0
  3
Solid line
 72
    65
 73
     0
 40
0.0
  0
ENDTAB
  0
TABLE
  2
LAYER
  5
2
330
0
100
AcDbSymbolTable
 70
1
  0
LAYER
  5
10
330
2
100
AcDbSymbolTableRecord
100
AcDbLayerTableRecord
  2
0
 70
     0
 62
     7
  6
CONTINUOUS
  0
ENDTAB
  0
TABLE
  2
STYLE
  5
3
330
0
100
AcDbSymbolTable
 70
     1
  0
STYLE
  5
11
330
3
100
AcDbSymbolTableRecord
100
AcDbTextStyleTableRecord
  2
STANDARD
 70
     0
 40
0.0
 41
1.0
 50
0.0
 71
     0
 42
2.5
  3
txt
  4

  0
ENDTAB
  0
TABLE
  2
VIEW
  5
6
330
0
100
AcDbSymbolTable
 70
     0
  0
ENDTAB
  0
TABLE
  2
UCS
  5
7
330
0
100
AcDbSymbolTable
 70
     0
  0
ENDTAB
  0
TABLE
  2
APPID
  5
9
330
0
100
AcDbSymbolTable
 70
     2
  0
APPID
  5
12
330
9
100
AcDbSymbolTableRecord
100
AcDbRegAppTableRecord
  2
ACAD
 70
     0
  0
ENDTAB
  0
TABLE
  2
DIMSTYLE
  5
A
330
0
100
AcDbSymbolTable
 70
     1
  0
DIMSTYLE
105
27
330
A
100
AcDbSymbolTableRecord
100
AcDbDimStyleTableRecord
  2
ISO-25
 70
     0
  3

  4

  5

  6

  7

 40
1.0
 41
2.5
 42
0.625
 43
3.75
 44
1.25
 45
0.0
 46
0.0
 47
0.0
 48
0.0
140
2.5
141
2.5
142
0.0
143
0.03937007874016
144
1.0
145
0.0
146
1.0
147
0.625
 71
     0
 72
     0
 73
     0
 74
     0
 75
     0
 76
     0
 77
     1
 78
     8
170
     0
171
     3
172
     1
173
     0
174
     0
175
     0
176
     0
177
     0
178
     0
270
     2
271
     2
272
     2
273
     2
274
     3
340
11
275
     0
280
     0
281
     0
282
     0
283
     0
284
     8
285
     0
286
     0
287
     3
288
     0
  0
ENDTAB
  0
TABLE
  2
BLOCK_RECORD
  5
1
330
0
100
AcDbSymbolTable
 70
     1
  0
BLOCK_RECORD
  5
1F
330
1
100
AcDbSymbolTableRecord
100
AcDbBlockTableRecord
  2
*MODEL_SPACE
  0
BLOCK_RECORD
  5
1B
330
1
100
AcDbSymbolTableRecord
100
AcDbBlockTableRecord
  2
*PAPER_SPACE
  0
ENDTAB
  0
ENDSEC
  0
SECTION
  2
BLOCKS
  0
BLOCK
  5
20
330
1F
100
AcDbEntity
  8
0
100
AcDbBlockBegin
  2
*MODEL_SPACE
 70
     0
 10
0.0
 20
0.0
 30
0.0
  3
*MODEL_SPACE
  1

  0
ENDBLK
  5
21
330
1F
100
AcDbEntity
  8
0
100
AcDbBlockEnd
  0
BLOCK
  5
1C
330
1B
100
AcDbEntity
 67
     1
  8
0
100
AcDbBlockBegin
  2
*PAPER_SPACE
  1

  0
ENDBLK
  5
1D
330
1B
100
AcDbEntity
 67
     1
  8
0
100
AcDbBlockEnd
  0
ENDSEC
  0
SECTION
  2
ENTITIES
0
LINE
8
Layer 1
62
4
5
100
100
AcDbEntity
100
AcDbLine
10
17.506377
20
0.183066
30
0.0
11
17.373497
21
2.746180
31
0.0
0
LINE
8
Layer 1
62
4
5
101
100
AcDbEntity
100
AcDbLine
10
17.373497
20
2.746180
30
0.0
11
17.318228
21
8.644354
31
0.0
0
LINE
8
Layer 1
62
4
5
102
100
AcDbEntity
100
AcDbLine
10
17.318228
20
8.644354
30
0.0
11
17.318228
21
16.917498
31
0.0
0
LINE
8
Layer 1
62
4
5
103
100
AcDbEntity
100
AcDbLine
10
17.318228
20
16.917498
30
0.0
11
18.023303
21
17.094460
31
0.0
0
LINE
8
Layer 1
62
4
5
104
100
AcDbEntity
100
AcDbLine
10
18.023303
20
17.094460
30
0.0
11
21.903858
21
17.165966
31
0.0
0
LINE
8
Layer 1
62
4
5
105
100
AcDbEntity
100
AcDbLine
10
21.903858
20
17.165966
30
0.0
11
24.741895
21
16.955020
31
0.0
0
LINE
8
Layer 1
62
4
5
106
100
AcDbEntity
100
AcDbLine
10
24.741895
20
16.955020
30
0.0
11
25.577899
21
16.727340
31
0.0
0
LINE
8
Layer 1
62
4
5
107
100
AcDbEntity
100
AcDbLine
10
25.577899
20
16.727340
30
0.0
11
26.349339
21
16.359381
31
0.0
0
LINE
8
Layer 1
62
4
5
108
100
AcDbEntity
100
AcDbLine
10
26.349339
20
16.359381
30
0.0
11
27.522922
21
15.486328
31
0.0
0
LINE
8
Layer 1
62
4
5
109
100
AcDbEntity
100
AcDbLine
10
27.522922
20
15.486328
30
0.0
11
28.321299
21
14.367567
31
0.0
0
LINE
8
Layer 1
62
4
5
10a
100
AcDbEntity
100
AcDbLine
10
28.321299
20
14.367567
30
0.0
11
28.747045
21
12.997866
31
0.0
0
LINE
8
Layer 1
62
4
5
10b
100
AcDbEntity
100
AcDbLine
10
28.747045
20
12.997866
30
0.0
11
28.802734
21
11.371992
31
0.0
0
LINE
8
Layer 1
62
4
5
10c
100
AcDbEntity
100
AcDbLine
10
28.802734
20
11.371992
30
0.0
11
28.628440
21
10.186344
31
0.0
0
LINE
8
Layer 1
62
4
5
10d
100
AcDbEntity
100
AcDbLine
10
28.628440
20
10.186344
30
0.0
11
28.289685
21
9.147304
31
0.0
0
LINE
8
Layer 1
62
4
5
10e
100
AcDbEntity
100
AcDbLine
10
28.289685
20
9.147304
30
0.0
11
27.786260
21
8.254683
31
0.0
0
LINE
8
Layer 1
62
4
5
10f
100
AcDbEntity
100
AcDbLine
10
27.786260
20
8.254683
30
0.0
11
27.117955
21
7.508293
31
0.0
0
LINE
8
Layer 1
62
4
5
110
100
AcDbEntity
100
AcDbLine
10
27.117955
20
7.508293
30
0.0
11
26.284559
21
6.907946
31
0.0
0
LINE
8
Layer 1
62
4
5
111
100
AcDbEntity
100
AcDbLine
10
26.284559
20
6.907946
30
0.0
11
25.285862
21
6.453453
31
0.0
0
LINE
8
Layer 1
62
4
5
112
100
AcDbEntity
100
AcDbLine
10
25.285862
20
6.453453
30
0.0
11
24.121655
21
6.144627
31
0.0
0
LINE
8
Layer 1
62
4
5
113
100
AcDbEntity
100
AcDbLine
10
24.121655
20
6.144627
30
0.0
11
22.791729
21
5.981279
31
0.0
0
LINE
8
Layer 1
62
4
5
114
100
AcDbEntity
100
AcDbLine
10
22.791729
20
5.981279
30
0.0
11
20.704895
21
5.847357
31
0.0
0
LINE
8
Layer 1
62
4
5
115
100
AcDbEntity
100
AcDbLine
10
20.704895
20
5.847357
30
0.0
11
20.704895
21
3.092442
31
0.0
0
LINE
8
Layer 1
62
4
5
116
100
AcDbEntity
100
AcDbLine
10
20.704895
20
3.092442
30
0.0
11
20.618519
21
0.837425
31
0.0
0
LINE
8
Layer 1
62
4
5
117
100
AcDbEntity
100
AcDbLine
10
20.618519
20
0.837425
30
0.0
11
20.482168
21
0.365860
31
0.0
0
LINE
8
Layer 1
62
4
5
118
100
AcDbEntity
100
AcDbLine
10
20.482168
20
0.365860
30
0.0
11
20.258480
21
0.166223
31
0.0
0
LINE
8
Layer 1
62
4
5
119
100
AcDbEntity
100
AcDbLine
10
20.258480
20
0.166223
30
0.0
11
18.745777
21
0.000163
31
0.0
0
LINE
8
Layer 1
62
4
5
11a
100
AcDbEntity
100
AcDbLine
10
18.745777
20
0.000163
30
0.0
11
17.506377
21
0.183072
31
0.0
0
LINE
8
Layer 1
62
4
5
11b
100
AcDbEntity
100
AcDbLine
10
17.506377
20
0.183072
30
0.0
11
17.506377
21
0.183066
31
0.0
0
LINE
8
Layer 1
62
4
5
11c
100
AcDbEntity
100
AcDbLine
10
24.395492
20
9.568764
30
0.0
11
25.057538
21
10.479720
31
0.0
0
LINE
8
Layer 1
62
4
5
11d
100
AcDbEntity
100
AcDbLine
10
25.057538
20
10.479720
30
0.0
11
25.220451
21
11.654163
31
0.0
0
LINE
8
Layer 1
62
4
5
11e
100
AcDbEntity
100
AcDbLine
10
25.220451
20
11.654163
30
0.0
11
25.086601
21
12.853402
31
0.0
0
LINE
8
Layer 1
62
4
5
11f
100
AcDbEntity
100
AcDbLine
10
25.086601
20
12.853402
30
0.0
11
24.631830
21
13.647983
31
0.0
0
LINE
8
Layer 1
62
4
5
120
100
AcDbEntity
100
AcDbLine
10
24.631830
20
13.647983
30
0.0
11
23.776309
21
14.114756
31
0.0
0
LINE
8
Layer 1
62
4
5
121
100
AcDbEntity
100
AcDbLine
10
23.776309
20
14.114756
30
0.0
11
22.440205
21
14.330570
31
0.0
0
LINE
8
Layer 1
62
4
5
122
100
AcDbEntity
100
AcDbLine
10
22.440205
20
14.330570
30
0.0
11
20.704895
21
14.456091
31
0.0
0
LINE
8
Layer 1
62
4
5
123
100
AcDbEntity
100
AcDbLine
10
20.704895
20
14.456091
30
0.0
11
20.704895
21
11.599949
31
0.0
0
LINE
8
Layer 1
62
4
5
124
100
AcDbEntity
100
AcDbLine
10
20.704895
20
11.599949
30
0.0
11
20.704895
21
8.743806
31
0.0
0
LINE
8
Layer 1
62
4
5
125
100
AcDbEntity
100
AcDbLine
10
20.704895
20
8.743806
30
0.0
11
22.137715
21
8.743806
31
0.0
0
LINE
8
Layer 1
62
4
5
126
100
AcDbEntity
100
AcDbLine
10
22.137715
20
8.743806
30
0.0
11
23.458682
21
8.895607
31
0.0
0
LINE
8
Layer 1
62
4
5
127
100
AcDbEntity
100
AcDbLine
10
23.458682
20
8.895607
30
0.0
11
24.395492
21
9.568764
31
0.0
0
LINE
8
Layer 1
62
4
5
128
100
AcDbEntity
100
AcDbLine
10
24.395492
20
9.568764
30
0.0
11
24.395492
21
9.568764
31
0.0
0
LINE
8
Layer 1
62
4
5
129
100
AcDbEntity
100
AcDbLine
10
31.842140
20
0.343933
30
0.0
11
31.777678
21
8.888352
31
0.0
0
LINE
8
Layer 1
62
4
5
12a
100
AcDbEntity
100
AcDbLine
10
31.777678
20
8.888352
30
0.0
11
31.852672
21
17.069362
31
0.0
0
LINE
8
Layer 1
62
4
5
12b
100
AcDbEntity
100
AcDbLine
10
31.852672
20
17.069362
30
0.0
11
33.404895
21
17.069362
31
0.0
0
LINE
8
Layer 1
62
4
5
12c
100
AcDbEntity
100
AcDbLine
10
33.404895
20
17.069362
30
0.0
11
34.957117
21
17.069362
31
0.0
0
LINE
8
Layer 1
62
4
5
12d
100
AcDbEntity
100
AcDbLine
10
34.957117
20
17.069362
30
0.0
11
35.032498
21
9.953069
31
0.0
0
LINE
8
Layer 1
62
4
5
12e
100
AcDbEntity
100
AcDbLine
10
35.032498
20
9.953069
30
0.0
11
35.107880
21
2.836779
31
0.0
0
LINE
8
Layer 1
62
4
5
12f
100
AcDbEntity
100
AcDbLine
10
35.107880
20
2.836779
30
0.0
11
37.995832
21
2.756402
31
0.0
0
LINE
8
Layer 1
62
4
5
130
100
AcDbEntity
100
AcDbLine
10
37.995832
20
2.756402
30
0.0
11
40.883784
21
2.676028
31
0.0
0
LINE
8
Layer 1
62
4
5
131
100
AcDbEntity
100
AcDbLine
10
40.883784
20
2.676028
30
0.0
11
40.883784
21
1.406028
31
0.0
0
LINE
8
Layer 1
62
4
5
132
100
AcDbEntity
100
AcDbLine
10
40.883784
20
1.406028
30
0.0
11
40.883784
21
0.136028
31
0.0
0
LINE
8
Layer 1
62
4
5
133
100
AcDbEntity
100
AcDbLine
10
40.883784
20
0.136028
30
0.0
11
36.432688
21
0.058276
31
0.0
0
LINE
8
Layer 1
62
4
5
134
100
AcDbEntity
100
AcDbLine
10
36.432688
20
0.058276
30
0.0
11
32.892532
21
0.073725
31
0.0
0
LINE
8
Layer 1
62
4
5
135
100
AcDbEntity
100
AcDbLine
10
32.892532
20
0.073725
30
0.0
11
32.122780
21
0.172834
31
0.0
0
LINE
8
Layer 1
62
4
5
136
100
AcDbEntity
100
AcDbLine
10
32.122780
20
0.172834
30
0.0
11
31.842140
21
0.343933
31
0.0
0
LINE
8
Layer 1
62
4
5
137
100
AcDbEntity
100
AcDbLine
10
31.842140
20
0.343933
30
0.0
11
31.842140
21
0.343933
31
0.0
0
LINE
8
Layer 1
62
4
5
138
100
AcDbEntity
100
AcDbLine
10
41.750863
20
0.244111
30
0.0
11
42.498382
21
2.837828
31
0.0
0
LINE
8
Layer 1
62
4
5
139
100
AcDbEntity
100
AcDbLine
10
42.498382
20
2.837828
30
0.0
11
44.322360
21
8.374049
31
0.0
0
LINE
8
Layer 1
62
4
5
13a
100
AcDbEntity
100
AcDbLine
10
44.322360
20
8.374049
30
0.0
11
47.375259
21
16.928840
31
0.0
0
LINE
8
Layer 1
62
4
5
13b
100
AcDbEntity
100
AcDbLine
10
47.375259
20
16.928840
30
0.0
11
48.070697
21
17.127743
31
0.0
0
LINE
8
Layer 1
62
4
5
13c
100
AcDbEntity
100
AcDbLine
10
48.070697
20
17.127743
30
0.0
11
49.498287
21
17.210473
31
0.0
0
LINE
8
Layer 1
62
4
5
13d
100
AcDbEntity
100
AcDbLine
10
49.498287
20
17.210473
30
0.0
11
51.134494
21
17.110302
31
0.0
0
LINE
8
Layer 1
62
4
5
13e
100
AcDbEntity
100
AcDbLine
10
51.134494
20
17.110302
30
0.0
11
51.511291
21
16.947911
31
0.0
0
LINE
8
Layer 1
62
4
5
13f
100
AcDbEntity
100
AcDbLine
10
51.511291
20
16.947911
30
0.0
11
51.732440
21
16.677603
31
0.0
0
LINE
8
Layer 1
62
4
5
140
100
AcDbEntity
100
AcDbLine
10
51.732440
20
16.677603
30
0.0
11
52.898853
21
13.643183
31
0.0
0
LINE
8
Layer 1
62
4
5
141
100
AcDbEntity
100
AcDbLine
10
52.898853
20
13.643183
30
0.0
11
54.799206
21
8.167374
31
0.0
0
LINE
8
Layer 1
62
4
5
142
100
AcDbEntity
100
AcDbLine
10
54.799206
20
8.167374
30
0.0
11
56.548807
21
2.863103
31
0.0
0
LINE
8
Layer 1
62
4
5
143
100
AcDbEntity
100
AcDbLine
10
56.548807
20
2.863103
30
0.0
11
57.262962
21
0.343298
31
0.0
0
LINE
8
Layer 1
62
4
5
144
100
AcDbEntity
100
AcDbLine
10
57.262962
20
0.343298
30
0.0
11
56.777715
21
0.074318
31
0.0
0
LINE
8
Layer 1
62
4
5
145
100
AcDbEntity
100
AcDbLine
10
56.777715
20
0.074318
30
0.0
11
55.515005
21
0.051288
31
0.0
0
LINE
8
Layer 1
62
4
5
146
100
AcDbEntity
100
AcDbLine
10
55.515005
20
0.051288
30
0.0
11
53.911619
21
0.136028
31
0.0
0
LINE
8
Layer 1
62
4
5
147
100
AcDbEntity
100
AcDbLine
10
53.911619
20
0.136028
30
0.0
11
53.300339
21
1.970473
31
0.0
0
LINE
8
Layer 1
62
4
5
148
100
AcDbEntity
100
AcDbLine
10
53.300339
20
1.970473
30
0.0
11
52.689060
21
3.804917
31
0.0
0
LINE
8
Layer 1
62
4
5
149
100
AcDbEntity
100
AcDbLine
10
52.689060
20
3.804917
30
0.0
11
49.375921
21
3.804917
31
0.0
0
LINE
8
Layer 1
62
4
5
14a
100
AcDbEntity
100
AcDbLine
10
49.375921
20
3.804917
30
0.0
11
46.062784
21
3.804917
31
0.0
0
LINE
8
Layer 1
62
4
5
14b
100
AcDbEntity
100
AcDbLine
10
46.062784
20
3.804917
30
0.0
11
45.448838
21
1.970473
31
0.0
0
LINE
8
Layer 1
62
4
5
14c
100
AcDbEntity
100
AcDbLine
10
45.448838
20
1.970473
30
0.0
11
44.834895
21
0.136028
31
0.0
0
LINE
8
Layer 1
62
4
5
14d
100
AcDbEntity
100
AcDbLine
10
44.834895
20
0.136028
30
0.0
11
43.378459
21
0.051599
31
0.0
0
LINE
8
Layer 1
62
4
5
14e
100
AcDbEntity
100
AcDbLine
10
43.378459
20
0.051599
30
0.0
11
42.299573
21
0.073322
31
0.0
0
LINE
8
Layer 1
62
4
5
14f
100
AcDbEntity
100
AcDbLine
10
42.299573
20
0.073322
30
0.0
11
41.750863
21
0.244111
31
0.0
0
LINE
8
Layer 1
62
4
5
150
100
AcDbEntity
100
AcDbLine
10
41.750863
20
0.244111
30
0.0
11
41.750863
21
0.244111
31
0.0
0
LINE
8
Layer 1
62
4
5
151
100
AcDbEntity
100
AcDbLine
10
51.749339
20
6.697280
30
0.0
11
50.574659
21
10.425437
31
0.0
0
LINE
8
Layer 1
62
4
5
152
100
AcDbEntity
100
AcDbLine
10
50.574659
20
10.425437
30
0.0
11
49.315951
21
13.742269
31
0.0
0
LINE
8
Layer 1
62
4
5
153
100
AcDbEntity
100
AcDbLine
10
49.315951
20
13.742269
30
0.0
11
46.951561
21
6.710914
31
0.0
0
LINE
8
Layer 1
62
4
5
154
100
AcDbEntity
100
AcDbLine
10
46.951561
20
6.710914
30
0.0
11
47.656235
21
6.552089
31
0.0
0
LINE
8
Layer 1
62
4
5
155
100
AcDbEntity
100
AcDbLine
10
47.656235
20
6.552089
30
0.0
11
49.350450
21
6.486028
31
0.0
0
LINE
8
Layer 1
62
4
5
156
100
AcDbEntity
100
AcDbLine
10
49.350450
20
6.486028
30
0.0
11
51.044665
21
6.548084
31
0.0
0
LINE
8
Layer 1
62
4
5
157
100
AcDbEntity
100
AcDbLine
10
51.044665
20
6.548084
30
0.0
11
51.749339
21
6.697280
31
0.0
0
LINE
8
Layer 1
62
4
5
158
100
AcDbEntity
100
AcDbLine
10
51.749339
20
6.697280
30
0.0
11
51.749339
21
6.697280
31
0.0
0
LINE
8
Layer 1
62
4
5
159
100
AcDbEntity
100
AcDbLine
10
40.515989
20
23.552096
30
0.0
11
37.043749
21
27.912811
31
0.0
0
LINE
8
Layer 1
62
4
5
15a
100
AcDbEntity
100
AcDbLine
10
37.043749
20
27.912811
30
0.0
11
40.553301
21
32.288130
31
0.0
0
LINE
8
Layer 1
62
4
5
15b
100
AcDbEntity
100
AcDbLine
10
40.553301
20
32.288130
30
0.0
11
43.620371
21
35.967320
31
0.0
0
LINE
8
Layer 1
62
4
5
15c
100
AcDbEntity
100
AcDbLine
10
43.620371
20
35.967320
30
0.0
11
44.072982
21
36.207204
31
0.0
0
LINE
8
Layer 1
62
4
5
15d
100
AcDbEntity
100
AcDbLine
10
44.072982
20
36.207204
30
0.0
11
44.237207
21
35.791685
31
0.0
0
LINE
8
Layer 1
62
4
5
15e
100
AcDbEntity
100
AcDbLine
10
44.237207
20
35.791685
30
0.0
11
44.411561
21
33.720473
31
0.0
0
LINE
8
Layer 1
62
4
5
15f
100
AcDbEntity
100
AcDbLine
10
44.411561
20
33.720473
30
0.0
11
44.590521
21
31.626231
31
0.0
0
LINE
8
Layer 1
62
4
5
160
100
AcDbEntity
100
AcDbLine
10
44.590521
20
31.626231
30
0.0
11
44.769481
21
30.731435
31
0.0
0
LINE
8
Layer 1
62
4
5
161
100
AcDbEntity
100
AcDbLine
10
44.769481
20
30.731435
30
0.0
11
52.704410
21
30.918373
31
0.0
0
LINE
8
Layer 1
62
4
5
162
100
AcDbEntity
100
AcDbLine
10
52.704410
20
30.918373
30
0.0
11
59.422573
21
31.164020
31
0.0
0
LINE
8
Layer 1
62
4
5
163
100
AcDbEntity
100
AcDbLine
10
59.422573
20
31.164020
30
0.0
11
60.927555
21
31.346575
31
0.0
0
LINE
8
Layer 1
62
4
5
164
100
AcDbEntity
100
AcDbLine
10
60.927555
20
31.346575
30
0.0
11
61.831257
21
31.617584
31
0.0
0
LINE
8
Layer 1
62
4
5
165
100
AcDbEntity
100
AcDbLine
10
61.831257
20
31.617584
30
0.0
11
62.851609
21
32.230933
31
0.0
0
LINE
8
Layer 1
62
4
5
166
100
AcDbEntity
100
AcDbLine
10
62.851609
20
32.230933
30
0.0
11
63.580984
21
33.068530
31
0.0
0
LINE
8
Layer 1
62
4
5
167
100
AcDbEntity
100
AcDbLine
10
63.580984
20
33.068530
30
0.0
11
64.018975
21
34.129710
31
0.0
0
LINE
8
Layer 1
62
4
5
168
100
AcDbEntity
100
AcDbLine
10
64.018975
20
34.129710
30
0.0
11
64.165170
21
35.413806
31
0.0
0
LINE
8
Layer 1
62
4
5
169
100
AcDbEntity
100
AcDbLine
10
64.165170
20
35.413806
30
0.0
11
64.003839
21
36.484525
31
0.0
0
LINE
8
Layer 1
62
4
5
16a
100
AcDbEntity
100
AcDbLine
10
64.003839
20
36.484525
30
0.0
11
63.242809
21
38.344679
31
0.0
0
LINE
8
Layer 1
62
4
5
16b
100
AcDbEntity
100
AcDbLine
10
63.242809
20
38.344679
30
0.0
11
58.260779
21
47.963424
31
0.0
0
LINE
8
Layer 1
62
4
5
16c
100
AcDbEntity
100
AcDbLine
10
58.260779
20
47.963424
30
0.0
11
54.132255
21
55.897253
31
0.0
0
LINE
8
Layer 1
62
4
5
16d
100
AcDbEntity
100
AcDbLine
10
54.132255
20
55.897253
30
0.0
11
52.497730
21
59.330892
31
0.0
0
LINE
8
Layer 1
62
4
5
16e
100
AcDbEntity
100
AcDbLine
10
52.497730
20
59.330892
30
0.0
11
55.147145
21
60.819403
31
0.0
0
LINE
8
Layer 1
62
4
5
16f
100
AcDbEntity
100
AcDbLine
10
55.147145
20
60.819403
30
0.0
11
57.655059
21
62.078949
31
0.0
0
LINE
8
Layer 1
62
4
5
170
100
AcDbEntity
100
AcDbLine
10
57.655059
20
62.078949
30
0.0
11
58.336934
21
60.881935
31
0.0
0
LINE
8
Layer 1
62
4
5
171
100
AcDbEntity
100
AcDbLine
10
58.336934
20
60.881935
30
0.0
11
64.811742
21
48.715311
31
0.0
0
LINE
8
Layer 1
62
4
5
172
100
AcDbEntity
100
AcDbLine
10
64.811742
20
48.715311
30
0.0
11
69.721208
21
38.914028
31
0.0
0
LINE
8
Layer 1
62
4
5
173
100
AcDbEntity
100
AcDbLine
10
69.721208
20
38.914028
30
0.0
11
70.100351
21
37.199376
31
0.0
0
LINE
8
Layer 1
62
4
5
174
100
AcDbEntity
100
AcDbLine
10
70.100351
20
37.199376
30
0.0
11
70.229403
21
35.131584
31
0.0
0
LINE
8
Layer 1
62
4
5
175
100
AcDbEntity
100
AcDbLine
10
70.229403
20
35.131584
30
0.0
11
70.142891
21
33.701402
31
0.0
0
LINE
8
Layer 1
62
4
5
176
100
AcDbEntity
100
AcDbLine
10
70.142891
20
33.701402
30
0.0
11
69.890471
21
32.378584
31
0.0
0
LINE
8
Layer 1
62
4
5
177
100
AcDbEntity
100
AcDbLine
10
69.890471
20
32.378584
30
0.0
11
69.471988
21
31.162885
31
0.0
0
LINE
8
Layer 1
62
4
5
178
100
AcDbEntity
100
AcDbLine
10
69.471988
20
31.162885
30
0.0
11
68.887286
21
30.054061
31
0.0
0
LINE
8
Layer 1
62
4
5
179
100
AcDbEntity
100
AcDbLine
10
68.887286
20
30.054061
30
0.0
11
68.136211
21
29.051866
31
0.0
0
LINE
8
Layer 1
62
4
5
17a
100
AcDbEntity
100
AcDbLine
10
68.136211
20
29.051866
30
0.0
11
67.218606
21
28.156054
31
0.0
0
LINE
8
Layer 1
62
4
5
17b
100
AcDbEntity
100
AcDbLine
10
67.218606
20
28.156054
30
0.0
11
66.134318
21
27.366381
31
0.0
0
LINE
8
Layer 1
62
4
5
17c
100
AcDbEntity
100
AcDbLine
10
66.134318
20
27.366381
30
0.0
11
64.883191
21
26.682601
31
0.0
0
LINE
8
Layer 1
62
4
5
17d
100
AcDbEntity
100
AcDbLine
10
64.883191
20
26.682601
30
0.0
11
62.839751
21
25.863703
31
0.0
0
LINE
8
Layer 1
62
4
5
17e
100
AcDbEntity
100
AcDbLine
10
62.839751
20
25.863703
30
0.0
11
60.506520
21
25.345645
31
0.0
0
LINE
8
Layer 1
62
4
5
17f
100
AcDbEntity
100
AcDbLine
10
60.506520
20
25.345645
30
0.0
11
57.219440
21
25.029913
31
0.0
0
LINE
8
Layer 1
62
4
5
180
100
AcDbEntity
100
AcDbLine
10
57.219440
20
25.029913
30
0.0
11
52.314455
21
24.817990
31
0.0
0
LINE
8
Layer 1
62
4
5
181
100
AcDbEntity
100
AcDbLine
10
52.314455
20
24.817990
30
0.0
11
44.790676
21
24.561602
31
0.0
0
LINE
8
Layer 1
62
4
5
182
100
AcDbEntity
100
AcDbLine
10
44.790676
20
24.561602
30
0.0
11
44.545450
21
21.867139
31
0.0
0
LINE
8
Layer 1
62
4
5
183
100
AcDbEntity
100
AcDbLine
10
44.545450
20
21.867139
30
0.0
11
44.166333
21
19.188707
31
0.0
0
LINE
8
Layer 1
62
4
5
184
100
AcDbEntity
100
AcDbLine
10
44.166333
20
19.188707
30
0.0
11
40.515989
21
23.552096
31
0.0
0
LINE
8
Layer 1
62
4
5
185
100
AcDbEntity
100
AcDbLine
10
40.515989
20
23.552096
30
0.0
11
40.515989
21
23.552096
31
0.0
0
LINE
8
Layer 1
62
4
5
186
100
AcDbEntity
100
AcDbLine
10
8.911825
20
24.850282
30
0.0
11
7.598421
21
25.101027
31
0.0
0
LINE
8
Layer 1
62
4
5
187
100
AcDbEntity
100
AcDbLine
10
7.598421
20
25.101027
30
0.0
11
6.338669
21
25.499491
31
0.0
0
LINE
8
Layer 1
62
4
5
188
100
AcDbEntity
100
AcDbLine
10
6.338669
20
25.499491
30
0.0
11
5.147760
21
26.035310
31
0.0
0
LINE
8
Layer 1
62
4
5
189
100
AcDbEntity
100
AcDbLine
10
5.147760
20
26.035310
30
0.0
11
4.040886
21
26.698125
31
0.0
0
LINE
8
Layer 1
62
4
5
18a
100
AcDbEntity
100
AcDbLine
10
4.040886
20
26.698125
30
0.0
11
3.033237
21
27.477573
31
0.0
0
LINE
8
Layer 1
62
4
5
18b
100
AcDbEntity
100
AcDbLine
10
3.033237
20
27.477573
30
0.0
11
2.140006
21
28.363293
31
0.0
0
LINE
8
Layer 1
62
4
5
18c
100
AcDbEntity
100
AcDbLine
10
2.140006
20
28.363293
30
0.0
11
1.376383
21
29.344922
31
0.0
0
LINE
8
Layer 1
62
4
5
18d
100
AcDbEntity
100
AcDbLine
10
1.376383
20
29.344922
30
0.0
11
0.757560
21
30.412100
31
0.0
0
LINE
8
Layer 1
62
4
5
18e
100
AcDbEntity
100
AcDbLine
10
0.757560
20
30.412100
30
0.0
11
0.132922
21
32.112185
31
0.0
0
LINE
8
Layer 1
62
4
5
18f
100
AcDbEntity
100
AcDbLine
10
0.132922
20
32.112185
30
0.0
11
0.000459
21
34.262037
31
0.0
0
LINE
8
Layer 1
62
4
5
190
100
AcDbEntity
100
AcDbLine
10
0.000459
20
34.262037
30
0.0
11
0.165838
21
36.676392
31
0.0
0
LINE
8
Layer 1
62
4
5
191
100
AcDbEntity
100
AcDbLine
10
0.165838
20
36.676392
30
0.0
11
0.784502
21
39.156589
31
0.0
0
LINE
8
Layer 1
62
4
5
192
100
AcDbEntity
100
AcDbLine
10
0.784502
20
39.156589
30
0.0
11
2.076744
21
42.357569
31
0.0
0
LINE
8
Layer 1
62
4
5
193
100
AcDbEntity
100
AcDbLine
10
2.076744
20
42.357569
30
0.0
11
4.262860
21
46.934275
31
0.0
0
LINE
8
Layer 1
62
4
5
194
100
AcDbEntity
100
AcDbLine
10
4.262860
20
46.934275
30
0.0
11
6.867600
21
52.420670
31
0.0
0
LINE
8
Layer 1
62
4
5
195
100
AcDbEntity
100
AcDbLine
10
6.867600
20
52.420670
30
0.0
11
7.237812
21
53.505938
31
0.0
0
LINE
8
Layer 1
62
4
5
196
100
AcDbEntity
100
AcDbLine
10
7.237812
20
53.505938
30
0.0
11
7.158119
21
53.898529
31
0.0
0
LINE
8
Layer 1
62
4
5
197
100
AcDbEntity
100
AcDbLine
10
7.158119
20
53.898529
30
0.0
11
4.228442
21
55.787276
31
0.0
0
LINE
8
Layer 1
62
4
5
198
100
AcDbEntity
100
AcDbLine
10
4.228442
20
55.787276
30
0.0
11
3.369645
21
56.491992
31
0.0
0
LINE
8
Layer 1
62
4
5
199
100
AcDbEntity
100
AcDbLine
10
3.369645
20
56.491992
30
0.0
11
3.210660
21
56.818166
31
0.0
0
LINE
8
Layer 1
62
4
5
19a
100
AcDbEntity
100
AcDbLine
10
3.210660
20
56.818166
30
0.0
11
14.070013
21
58.906303
31
0.0
0
LINE
8
Layer 1
62
4
5
19b
100
AcDbEntity
100
AcDbLine
10
14.070013
20
58.906303
30
0.0
11
18.398201
21
48.686985
31
0.0
0
LINE
8
Layer 1
62
4
5
19c
100
AcDbEntity
100
AcDbLine
10
18.398201
20
48.686985
30
0.0
11
15.686244
21
49.737992
31
0.0
0
LINE
8
Layer 1
62
4
5
19d
100
AcDbEntity
100
AcDbLine
10
15.686244
20
49.737992
30
0.0
11
12.966013
21
50.762191
31
0.0
0
LINE
8
Layer 1
62
4
5
19e
100
AcDbEntity
100
AcDbLine
10
12.966013
20
50.762191
30
0.0
11
9.306331
21
43.529865
31
0.0
0
LINE
8
Layer 1
62
4
5
19f
100
AcDbEntity
100
AcDbLine
10
9.306331
20
43.529865
30
0.0
11
6.351317
21
37.375484
31
0.0
0
LINE
8
Layer 1
62
4
5
1a0
100
AcDbEntity
100
AcDbLine
10
6.351317
20
37.375484
30
0.0
11
5.862467
21
35.969797
31
0.0
0
LINE
8
Layer 1
62
4
5
1a1
100
AcDbEntity
100
AcDbLine
10
5.862467
20
35.969797
30
0.0
11
5.747117
21
34.993456
31
0.0
0
LINE
8
Layer 1
62
4
5
1a2
100
AcDbEntity
100
AcDbLine
10
5.747117
20
34.993456
30
0.0
11
5.924554
21
33.631368
31
0.0
0
LINE
8
Layer 1
62
4
5
1a3
100
AcDbEntity
100
AcDbLine
10
5.924554
20
33.631368
30
0.0
11
6.762682
21
32.456879
31
0.0
0
LINE
8
Layer 1
62
4
5
1a4
100
AcDbEntity
100
AcDbLine
10
6.762682
20
32.456879
30
0.0
11
7.782457
21
31.568245
31
0.0
0
LINE
8
Layer 1
62
4
5
1a5
100
AcDbEntity
100
AcDbLine
10
7.782457
20
31.568245
30
0.0
11
8.808793
21
31.046530
31
0.0
0
LINE
8
Layer 1
62
4
5
1a6
100
AcDbEntity
100
AcDbLine
10
8.808793
20
31.046530
30
0.0
11
12.963128
21
30.837898
31
0.0
0
LINE
8
Layer 1
62
4
5
1a7
100
AcDbEntity
100
AcDbLine
10
12.963128
20
30.837898
30
0.0
11
22.327673
21
30.758714
31
0.0
0
LINE
8
Layer 1
62
4
5
1a8
100
AcDbEntity
100
AcDbLine
10
22.327673
20
30.758714
30
0.0
11
34.816006
21
30.757021
31
0.0
0
LINE
8
Layer 1
62
4
5
1a9
100
AcDbEntity
100
AcDbLine
10
34.816006
20
30.757021
30
0.0
11
34.816006
21
27.838225
31
0.0
0
LINE
8
Layer 1
62
4
5
1aa
100
AcDbEntity
100
AcDbLine
10
34.816006
20
27.838225
30
0.0
11
34.816006
21
24.919426
31
0.0
0
LINE
8
Layer 1
62
4
5
1ab
100
AcDbEntity
100
AcDbLine
10
34.816006
20
24.919426
30
0.0
11
29.690763
21
24.733781
31
0.0
0
LINE
8
Layer 1
62
4
5
1ac
100
AcDbEntity
100
AcDbLine
10
29.690763
20
24.733781
30
0.0
11
17.635482
21
24.591300
31
0.0
0
LINE
8
Layer 1
62
4
5
1ad
100
AcDbEntity
100
AcDbLine
10
17.635482
20
24.591300
30
0.0
11
12.167439
21
24.674428
31
0.0
0
LINE
8
Layer 1
62
4
5
1ae
100
AcDbEntity
100
AcDbLine
10
12.167439
20
24.674428
30
0.0
11
8.911825
21
24.850163
31
0.0
0
LINE
8
Layer 1
62
4
5
1af
100
AcDbEntity
100
AcDbLine
10
8.911825
20
24.850163
30
0.0
11
8.911825
21
24.850282
31
0.0
0
LINE
8
Layer 1
62
4
5
1b0
100
AcDbEntity
100
AcDbLine
10
30.137698
20
42.706208
30
0.0
11
30.909502
21
44.870692
31
0.0
0
LINE
8
Layer 1
62
4
5
1b1
100
AcDbEntity
100
AcDbLine
10
30.909502
20
44.870692
30
0.0
11
32.968779
21
49.543916
31
0.0
0
LINE
8
Layer 1
62
4
5
1b2
100
AcDbEntity
100
AcDbLine
10
32.968779
20
49.543916
30
0.0
11
35.944895
21
56.213324
31
0.0
0
LINE
8
Layer 1
62
4
5
1b3
100
AcDbEntity
100
AcDbLine
10
35.944895
20
56.213324
30
0.0
11
34.846433
21
56.384524
31
0.0
0
LINE
8
Layer 1
62
4
5
1b4
100
AcDbEntity
100
AcDbLine
10
34.846433
20
56.384524
30
0.0
11
32.205450
21
56.501724
31
0.0
0
LINE
8
Layer 1
62
4
5
1b5
100
AcDbEntity
100
AcDbLine
10
32.205450
20
56.501724
30
0.0
11
28.466006
21
56.580473
31
0.0
0
LINE
8
Layer 1
62
4
5
1b6
100
AcDbEntity
100
AcDbLine
10
28.466006
20
56.580473
30
0.0
11
28.466006
21
57.991584
31
0.0
0
LINE
8
Layer 1
62
4
5
1b7
100
AcDbEntity
100
AcDbLine
10
28.466006
20
57.991584
30
0.0
11
28.466006
21
59.402695
31
0.0
0
LINE
8
Layer 1
62
4
5
1b8
100
AcDbEntity
100
AcDbLine
10
28.466006
20
59.402695
30
0.0
11
34.110450
21
59.402695
31
0.0
0
LINE
8
Layer 1
62
4
5
1b9
100
AcDbEntity
100
AcDbLine
10
34.110450
20
59.402695
30
0.0
11
39.754895
21
59.402695
31
0.0
0
LINE
8
Layer 1
62
4
5
1ba
100
AcDbEntity
100
AcDbLine
10
39.754895
20
59.402695
30
0.0
11
39.732938
21
57.850473
31
0.0
0
LINE
8
Layer 1
62
4
5
1bb
100
AcDbEntity
100
AcDbLine
10
39.732938
20
57.850473
30
0.0
11
39.616689
21
56.809050
31
0.0
0
LINE
8
Layer 1
62
4
5
1bc
100
AcDbEntity
100
AcDbLine
10
39.616689
20
56.809050
30
0.0
11
39.192916
21
55.386117
31
0.0
0
LINE
8
Layer 1
62
4
5
1bd
100
AcDbEntity
100
AcDbLine
10
39.192916
20
55.386117
30
0.0
11
36.803734
21
49.666028
31
0.0
0
LINE
8
Layer 1
62
4
5
1be
100
AcDbEntity
100
AcDbLine
10
36.803734
20
49.666028
30
0.0
11
33.616130
21
42.681028
31
0.0
0
LINE
8
Layer 1
62
4
5
1bf
100
AcDbEntity
100
AcDbLine
10
33.616130
20
42.681028
30
0.0
11
32.934655
21
42.408029
31
0.0
0
LINE
8
Layer 1
62
4
5
1c0
100
AcDbEntity
100
AcDbLine
10
32.934655
20
42.408029
30
0.0
11
31.801807
21
42.323585
31
0.0
0
LINE
8
Layer 1
62
4
5
1c1
100
AcDbEntity
100
AcDbLine
10
31.801807
20
42.323585
30
0.0
11
30.706511
21
42.424156
31
0.0
0
LINE
8
Layer 1
62
4
5
1c2
100
AcDbEntity
100
AcDbLine
10
30.706511
20
42.424156
30
0.0
11
30.137695
21
42.706203
31
0.0
0
LINE
8
Layer 1
62
4
5
1c3
100
AcDbEntity
100
AcDbLine
10
30.137695
20
42.706203
30
0.0
11
30.137698
21
42.706208
31
0.0
0
LINE
8
Layer 1
62
4
5
1c4
100
AcDbEntity
100
AcDbLine
10
15.342673
20
61.530755
30
0.0
11
12.948424
21
63.017538
31
0.0
0
LINE
8
Layer 1
62
4
5
1c5
100
AcDbEntity
100
AcDbLine
10
12.948424
20
63.017538
30
0.0
11
13.363336
21
63.953537
31
0.0
0
LINE
8
Layer 1
62
4
5
1c6
100
AcDbEntity
100
AcDbLine
10
13.363336
20
63.953537
30
0.0
11
14.743182
21
66.341158
31
0.0
0
LINE
8
Layer 1
62
4
5
1c7
100
AcDbEntity
100
AcDbLine
10
14.743182
20
66.341158
30
0.0
11
19.244821
21
73.642141
31
0.0
0
LINE
8
Layer 1
62
4
5
1c8
100
AcDbEntity
100
AcDbLine
10
19.244821
20
73.642141
30
0.0
11
24.147629
21
81.262244
31
0.0
0
LINE
8
Layer 1
62
4
5
1c9
100
AcDbEntity
100
AcDbLine
10
24.147629
20
81.262244
30
0.0
11
27.145892
21
85.543223
31
0.0
0
LINE
8
Layer 1
62
4
5
1ca
100
AcDbEntity
100
AcDbLine
10
27.145892
20
85.543223
30
0.0
11
28.675131
21
86.949974
31
0.0
0
LINE
8
Layer 1
62
4
5
1cb
100
AcDbEntity
100
AcDbLine
10
28.675131
20
86.949974
30
0.0
11
30.250336
21
87.966938
31
0.0
0
LINE
8
Layer 1
62
4
5
1cc
100
AcDbEntity
100
AcDbLine
10
30.250336
20
87.966938
30
0.0
11
32.015835
21
88.616884
31
0.0
0
LINE
8
Layer 1
62
4
5
1cd
100
AcDbEntity
100
AcDbLine
10
32.015835
20
88.616884
30
0.0
11
34.392672
21
88.753806
31
0.0
0
LINE
8
Layer 1
62
4
5
1ce
100
AcDbEntity
100
AcDbLine
10
34.392672
20
88.753806
30
0.0
11
36.777275
21
88.615444
31
0.0
0
LINE
8
Layer 1
62
4
5
1cf
100
AcDbEntity
100
AcDbLine
10
36.777275
20
88.615444
30
0.0
11
38.569804
21
87.949915
31
0.0
0
LINE
8
Layer 1
62
4
5
1d0
100
AcDbEntity
100
AcDbLine
10
38.569804
20
87.949915
30
0.0
11
40.650669
21
86.635822
31
0.0
0
LINE
8
Layer 1
62
4
5
1d1
100
AcDbEntity
100
AcDbLine
10
40.650669
20
86.635822
30
0.0
11
42.684799
21
84.629018
31
0.0
0
LINE
8
Layer 1
62
4
5
1d2
100
AcDbEntity
100
AcDbLine
10
42.684799
20
84.629018
30
0.0
11
44.961563
21
81.590857
31
0.0
0
LINE
8
Layer 1
62
4
5
1d3
100
AcDbEntity
100
AcDbLine
10
44.961563
20
81.590857
30
0.0
11
47.770330
21
77.182695
31
0.0
0
LINE
8
Layer 1
62
4
5
1d4
100
AcDbEntity
100
AcDbLine
10
47.770330
20
77.182695
30
0.0
11
51.609814
21
70.897286
31
0.0
0
LINE
8
Layer 1
62
4
5
1d5
100
AcDbEntity
100
AcDbLine
10
51.609814
20
70.897286
30
0.0
11
54.148228
21
71.961584
31
0.0
0
LINE
8
Layer 1
62
4
5
1d6
100
AcDbEntity
100
AcDbLine
10
54.148228
20
71.961584
30
0.0
11
56.694722
21
73.025882
31
0.0
0
LINE
8
Layer 1
62
4
5
1d7
100
AcDbEntity
100
AcDbLine
10
56.694722
20
73.025882
30
0.0
11
54.801032
21
67.882743
31
0.0
0
LINE
8
Layer 1
62
4
5
1d8
100
AcDbEntity
100
AcDbLine
10
54.801032
20
67.882743
30
0.0
11
52.712566
21
62.670738
31
0.0
0
LINE
8
Layer 1
62
4
5
1d9
100
AcDbEntity
100
AcDbLine
10
52.712566
20
62.670738
30
0.0
11
47.194764
21
63.329336
31
0.0
0
LINE
8
Layer 1
62
4
5
1da
100
AcDbEntity
100
AcDbLine
10
47.194764
20
63.329336
30
0.0
11
41.636944
21
64.205939
31
0.0
0
LINE
8
Layer 1
62
4
5
1db
100
AcDbEntity
100
AcDbLine
10
41.636944
20
64.205939
30
0.0
11
43.744444
21
65.799164
31
0.0
0
LINE
8
Layer 1
62
4
5
1dc
100
AcDbEntity
100
AcDbLine
10
43.744444
20
65.799164
30
0.0
11
46.186544
21
67.475205
31
0.0
0
LINE
8
Layer 1
62
4
5
1dd
100
AcDbEntity
100
AcDbLine
10
46.186544
20
67.475205
30
0.0
11
45.128010
21
69.597007
31
0.0
0
LINE
8
Layer 1
62
4
5
1de
100
AcDbEntity
100
AcDbLine
10
45.128010
20
69.597007
30
0.0
11
42.451291
21
74.169749
31
0.0
0
LINE
8
Layer 1
62
4
5
1df
100
AcDbEntity
100
AcDbLine
10
42.451291
20
74.169749
30
0.0
11
39.514177
21
78.934917
31
0.0
0
LINE
8
Layer 1
62
4
5
1e0
100
AcDbEntity
100
AcDbLine
10
39.514177
20
78.934917
30
0.0
11
37.674460
21
81.633994
31
0.0
0
LINE
8
Layer 1
62
4
5
1e1
100
AcDbEntity
100
AcDbLine
10
37.674460
20
81.633994
30
0.0
11
37.081533
21
82.160576
31
0.0
0
LINE
8
Layer 1
62
4
5
1e2
100
AcDbEntity
100
AcDbLine
10
37.081533
20
82.160576
30
0.0
11
36.414824
21
82.542603
31
0.0
0
LINE
8
Layer 1
62
4
5
1e3
100
AcDbEntity
100
AcDbLine
10
36.414824
20
82.542603
30
0.0
11
35.693379
21
82.779611
31
0.0
0
LINE
8
Layer 1
62
4
5
1e4
100
AcDbEntity
100
AcDbLine
10
35.693379
20
82.779611
30
0.0
11
34.936248
21
82.871139
31
0.0
0
LINE
8
Layer 1
62
4
5
1e5
100
AcDbEntity
100
AcDbLine
10
34.936248
20
82.871139
30
0.0
11
33.391119
21
82.615908
31
0.0
0
LINE
8
Layer 1
62
4
5
1e6
100
AcDbEntity
100
AcDbLine
10
33.391119
20
82.615908
30
0.0
11
32.641217
21
82.268226
31
0.0
0
LINE
8
Layer 1
62
4
5
1e7
100
AcDbEntity
100
AcDbLine
10
32.641217
20
82.268226
30
0.0
11
31.931822
21
81.773216
31
0.0
0
LINE
8
Layer 1
62
4
5
1e8
100
AcDbEntity
100
AcDbLine
10
31.931822
20
81.773216
30
0.0
11
29.476178
21
78.254230
31
0.0
0
LINE
8
Layer 1
62
4
5
1e9
100
AcDbEntity
100
AcDbLine
10
29.476178
20
78.254230
30
0.0
11
24.649975
21
70.691584
31
0.0
0
LINE
8
Layer 1
62
4
5
1ea
100
AcDbEntity
100
AcDbLine
10
24.649975
20
70.691584
30
0.0
11
19.949898
21
63.300989
31
0.0
0
LINE
8
Layer 1
62
4
5
1eb
100
AcDbEntity
100
AcDbLine
10
19.949898
20
63.300989
30
0.0
11
17.797493
21
60.195660
31
0.0
0
LINE
8
Layer 1
62
4
5
1ec
100
AcDbEntity
100
AcDbLine
10
17.797493
20
60.195660
30
0.0
11
16.936901
21
60.565693
31
0.0
0
LINE
8
Layer 1
62
4
5
1ed
100
AcDbEntity
100
AcDbLine
10
16.936901
20
60.565693
30
0.0
11
15.342673
21
61.530755
31
0.0
0
LINE
8
Layer 1
62
4
5
1ee
100
AcDbEntity
100
AcDbLine
10
15.342673
20
61.530755
30
0.0
11
15.342673
21
61.530755
31
0.0
  0
ENDSEC
  0
SECTION
  2
OBJECTS
  0
DICTIONARY
  5
C
330
0
100
AcDbDictionary
  3
ACAD_GROUP
350
D
  3
ACAD_MLINESTYLE
350
17
  0
DICTIONARY
  5
D
330
C
100
AcDbDictionary
  0
DICTIONARY
  5
1A
330
C
100
AcDbDictionary
  0
DICTIONARY
  5
17
330
C
100
AcDbDictionary
  3
STANDARD
350
18
  0
DICTIONARY
  5
19
330
C
100
AcDbDictionary
  0
ENDSEC
  0
EOF
